<svg width="164" height="40" viewBox="0 0 164 40" fill="none" xmlns="http://www.w3.org/2000/svg">
<path d="M26.8515 21.2573C26.8099 16.292 30.9153 13.8787 31.0956 13.7677C28.7655 10.3835 25.1594 9.91198 23.8973 9.87037C20.8738 9.55137 17.9334 11.6873 16.3939 11.6873C14.8266 11.6873 12.4411 9.91198 9.88909 9.95359C6.60202 10.0091 3.50911 11.9092 1.8309 14.8773C-1.65036 20.9105 0.943246 29.787 4.2858 34.6691C5.96402 37.0547 7.90575 39.7315 10.4716 39.6344C12.9681 39.5373 13.9113 38.0394 16.9209 38.0394C19.9168 38.0394 20.7905 39.6344 23.398 39.5789C26.0887 39.5373 27.7669 37.1795 29.3897 34.7662C31.3175 32.0339 32.0942 29.3293 32.122 29.1906C32.0526 29.1629 26.907 27.1934 26.8515 21.2573Z" fill="white"/>
<path d="M21.9279 6.66689C23.2733 4.98867 24.1887 2.7002 23.939 0.370117C21.9973 0.453334 19.5562 1.71546 18.1554 3.36594C16.921 4.82224 15.8115 7.19393 16.0889 9.42692C18.2803 9.59336 20.5271 8.31736 21.9279 6.66689Z" fill="white"/>
<path d="M57.7551 30.1464H54.26L52.346 24.1271H45.6886L43.8717 30.1464H40.4736L47.0617 9.66113H51.1393L57.7551 30.1464ZM51.7773 21.6028L50.0436 16.263C49.8633 15.7082 49.5166 14.4323 49.0173 12.4073H48.9479C48.7399 13.2811 48.4209 14.5709 47.9771 16.263L46.2711 21.6028H51.7773Z" fill="white"/>
<path d="M74.6896 22.5876C74.6896 25.098 74.01 27.0813 72.6369 28.5376C71.4164 29.8414 69.8908 30.4794 68.0877 30.4794C66.1321 30.4794 64.7313 29.7859 63.8714 28.3851V36.1381H60.5843V20.2298C60.5843 18.6487 60.5427 17.0398 60.4595 15.3754H63.3443L63.5246 17.7194H63.5801C64.6758 15.958 66.3402 15.0703 68.5593 15.0703C70.3068 15.0703 71.7493 15.7638 72.9143 17.1369C74.1071 18.5238 74.6896 20.3269 74.6896 22.5876ZM71.3471 22.6986C71.3471 21.2561 71.0281 20.0772 70.3762 19.148C69.6688 18.1771 68.7118 17.6917 67.5191 17.6917C66.7146 17.6917 65.9795 17.969 65.3138 18.4961C64.6619 19.037 64.2181 19.7305 64.0239 20.6043C63.9269 21.0065 63.8714 21.3393 63.8714 21.6029V24.0716C63.8714 25.1396 64.2042 26.055 64.8561 26.7901C65.508 27.5252 66.3679 27.8996 67.422 27.8996C68.6564 27.8996 69.6134 27.4142 70.3068 26.4711C71.0003 25.5141 71.3471 24.2658 71.3471 22.6986Z" fill="white"/>
<path d="M91.6662 22.5876C91.6662 25.098 90.9866 27.0813 89.6135 28.5376C88.393 29.8414 86.8673 30.4794 85.0643 30.4794C83.1087 30.4794 81.7079 29.7859 80.8479 28.3851V36.1381H77.5609V20.2298C77.5609 18.6487 77.5193 17.0398 77.436 15.3754H80.3209L80.5012 17.7194H80.5567C81.6524 15.958 83.3167 15.0703 85.5358 15.0703C87.2834 15.0703 88.7258 15.7638 89.8909 17.1369C91.0837 18.5238 91.6662 20.3269 91.6662 22.5876ZM88.3236 22.6986C88.3236 21.2561 88.0046 20.0772 87.3528 19.148C86.6454 18.1771 85.6884 17.6917 84.4956 17.6917C83.6912 17.6917 82.9561 17.969 82.2904 18.4961C81.6385 19.037 81.2086 19.7305 81.0005 20.6043C80.9034 21.0065 80.8479 21.3393 80.8479 21.6029V24.0716C80.8479 25.1396 81.1808 26.055 81.8327 26.7901C82.4845 27.5252 83.3445 27.8996 84.3985 27.8996C85.6329 27.8996 86.6038 27.4142 87.2834 26.4711C87.9908 25.5141 88.3236 24.2658 88.3236 22.6986Z" fill="white"/>
<path d="M110.667 24.4047C110.667 26.1523 110.057 27.5669 108.85 28.6626C107.519 29.8554 105.66 30.4518 103.275 30.4518C101.069 30.4518 99.308 30.0219 97.9766 29.1758L98.7394 26.4435C100.182 27.2896 101.763 27.7195 103.483 27.7195C104.717 27.7195 105.688 27.4421 106.368 26.8873C107.061 26.3326 107.408 25.5836 107.408 24.6543C107.408 23.8222 107.117 23.1287 106.562 22.56C105.993 21.9914 105.05 21.4644 103.732 20.9789C100.112 19.6336 98.3233 17.678 98.3233 15.1121C98.3233 13.4339 98.9613 12.0608 100.223 10.979C101.486 9.91103 103.164 9.37012 105.258 9.37012C107.117 9.37012 108.67 9.68912 109.904 10.341L109.072 13.0039C107.907 12.3798 106.603 12.0608 105.133 12.0608C103.982 12.0608 103.067 12.3521 102.415 12.9068C101.874 13.42 101.597 14.0303 101.597 14.7654C101.597 15.5698 101.916 16.2494 102.54 16.7626C103.081 17.248 104.079 17.7751 105.522 18.3437C107.283 19.0511 108.573 19.8832 109.405 20.8402C110.251 21.7972 110.667 22.99 110.667 24.4047Z" fill="white"/>
<path d="M121.541 17.8444H117.921V25.0149C117.921 26.8319 118.559 27.7472 119.835 27.7472C120.418 27.7472 120.903 27.6918 121.292 27.5947L121.389 30.0912C120.737 30.327 119.891 30.4518 118.837 30.4518C117.533 30.4518 116.534 30.0496 115.799 29.259C115.064 28.4685 114.703 27.137 114.703 25.2785V17.8305H112.554V15.3756H114.703V12.6711L117.921 11.7002V15.3756H121.541V17.8444Z" fill="white"/>
<path d="M137.824 22.6429C137.824 24.9175 137.172 26.776 135.882 28.2323C134.523 29.7302 132.72 30.4792 130.473 30.4792C128.309 30.4792 126.576 29.7579 125.286 28.3294C123.996 26.9008 123.358 25.0839 123.358 22.8925C123.358 20.6041 124.024 18.7317 125.341 17.2754C126.673 15.8191 128.462 15.084 130.709 15.084C132.872 15.084 134.62 15.8052 135.938 17.2476C137.2 18.6346 137.824 20.4376 137.824 22.6429ZM134.426 22.7122C134.426 21.353 134.135 20.2018 133.552 19.231C132.859 18.0521 131.874 17.4695 130.598 17.4695C129.28 17.4695 128.268 18.0521 127.588 19.231C126.992 20.2018 126.714 21.3808 126.714 22.7816C126.714 24.1408 127.006 25.3058 127.588 26.2628C128.295 27.4417 129.294 28.0243 130.57 28.0243C131.818 28.0243 132.803 27.4279 133.524 26.2351C134.121 25.2365 134.426 24.0714 134.426 22.7122Z" fill="white"/>
<path d="M148.503 18.2603C148.184 18.2048 147.838 18.1771 147.463 18.1771C146.312 18.1771 145.411 18.607 144.786 19.4808C144.246 20.2436 143.968 21.2284 143.968 22.3934V30.1465H140.681V20.0217C140.681 18.3158 140.653 16.7624 140.584 15.3754H143.441L143.566 18.2048H143.663C144.01 17.234 144.551 16.4434 145.3 15.8609C146.035 15.3338 146.825 15.0703 147.671 15.0703C147.976 15.0703 148.254 15.0981 148.49 15.1258L148.503 18.2603Z" fill="white"/>
<path d="M163.177 22.0612C163.177 22.6437 163.136 23.143 163.053 23.5452H153.205C153.247 25.0015 153.718 26.1249 154.634 26.8877C155.466 27.5674 156.534 27.9141 157.852 27.9141C159.308 27.9141 160.639 27.6783 161.832 27.2206L162.345 29.4952C160.944 30.1055 159.294 30.4106 157.394 30.4106C155.105 30.4106 153.302 29.731 151.999 28.3857C150.695 27.0403 150.043 25.2234 150.043 22.9627C150.043 20.7435 150.653 18.885 151.874 17.401C153.15 15.8199 154.87 15.0293 157.033 15.0293C159.155 15.0293 160.778 15.8199 161.86 17.401C162.734 18.677 163.177 20.2165 163.177 22.0612ZM160.043 21.2151C160.071 20.2442 159.849 19.3982 159.405 18.6909C158.836 17.7755 157.962 17.3178 156.797 17.3178C155.729 17.3178 154.856 17.7616 154.19 18.6492C153.649 19.3566 153.316 20.2165 153.219 21.2012L160.043 21.2151Z" fill="white"/>
</svg>
