<svg width="169" height="48" viewBox="0 0 169 48" fill="none" xmlns="http://www.w3.org/2000/svg">
<g clip-path="url(#clip0_4020_1827)">
<path d="M7.218 3.63281L27.584 24.0048L7.22 44.3768C6.85788 44.2246 6.54886 43.9687 6.33178 43.6413C6.11471 43.3139 5.99928 42.9296 6 42.5368V5.47281C6.00016 5.08045 6.11571 4.69681 6.33229 4.36964C6.54886 4.04247 6.85688 3.78622 7.218 3.63281ZM28.998 25.4188L33.602 30.0228L11.728 42.6888L28.998 25.4188ZM35.396 19.0228L41.01 22.2748C41.3131 22.4506 41.5647 22.703 41.7395 23.0066C41.9144 23.3102 42.0065 23.6544 42.0065 24.0048C42.0065 24.3552 41.9144 24.6994 41.7395 25.003C41.5647 25.3067 41.3131 25.559 41.01 25.7348L35.394 28.9868L30.412 24.0048L35.396 19.0228ZM11.728 5.32081L33.604 17.9848L28.998 22.5908L11.728 5.32081Z" fill="white"/>
</g>
<path fill-rule="evenodd" clip-rule="evenodd" d="M47.6705 22.86C47.6705 17.6587 52.0387 13.4238 57.2358 13.4238C60.109 13.4238 62.1533 14.553 63.696 16.0235L61.8797 17.8412C60.7772 16.8054 59.2821 16.0016 57.2338 16.0016C53.4386 16.0016 50.4723 19.0597 50.4723 22.858C50.4723 26.6562 53.4386 29.7183 57.2319 29.7183C59.6926 29.7183 61.0925 28.73 61.9907 27.8291C62.7264 27.0928 63.2082 26.0351 63.3946 24.5845H57.2358V22.0126H65.9049C65.9961 22.473 66.0437 23.0247 66.0437 23.622C66.0437 25.5529 65.5143 27.9481 63.811 29.6528C62.1533 31.3793 60.0396 32.3001 57.2338 32.3001C52.0348 32.3001 47.6665 28.0692 47.6665 22.8639L47.6705 22.86ZM73.0512 20.1452C69.6942 20.1452 66.9538 22.7012 66.9538 26.2197C66.9538 29.7203 69.6922 32.2941 73.0512 32.2941C76.4101 32.2941 79.1445 29.7163 79.1445 26.2177C79.1445 22.6992 76.4082 20.1432 73.0512 20.1452V20.1452ZM73.0512 29.9048C71.213 29.9048 69.6248 28.3867 69.6248 26.2216C69.6248 24.0348 71.2111 22.5385 73.0512 22.5385C74.8893 22.5385 76.4756 24.0328 76.4756 26.2216C76.4756 28.3847 74.8913 29.9048 73.0512 29.9048ZM86.3463 20.1452C82.9893 20.1452 80.2529 22.7012 80.2529 26.2197C80.2529 29.7203 82.9893 32.2941 86.3463 32.2941C89.7033 32.2941 92.4396 29.7163 92.4396 26.2177C92.4396 22.6992 89.7053 20.1432 86.3463 20.1452V20.1452ZM86.3463 29.9048C84.5082 29.9048 82.9199 28.3867 82.9199 26.2216C82.9199 24.0348 84.5062 22.5385 86.3463 22.5385C88.1844 22.5385 89.7727 24.0328 89.7727 26.2216C89.7727 28.3847 88.1844 29.9048 86.3463 29.9048ZM102.663 20.5143V21.5026H102.572C101.975 20.7862 100.825 20.1432 99.3777 20.1432C96.3419 20.1432 93.556 22.8143 93.556 26.2455C93.556 29.6488 96.3399 32.2981 99.3777 32.2981C100.825 32.2981 101.975 31.6551 102.572 30.9189H102.663V31.792C102.663 34.1158 101.422 35.3601 99.4213 35.3601C97.7874 35.3601 96.7762 34.1853 96.3617 33.199L94.0378 34.1655C94.7041 35.7749 96.4767 37.7554 99.4193 37.7554C102.544 37.7554 105.189 35.9118 105.189 31.4249V20.5123L102.663 20.5143ZM99.6057 29.9048C97.7676 29.9048 96.2229 28.3609 96.2229 26.2455C96.2229 24.1062 97.7656 22.5405 99.6057 22.5405C101.422 22.5405 102.848 24.1042 102.848 26.2455C102.85 28.3609 101.424 29.9048 99.6057 29.9048ZM107.032 14.0688H109.7V31.929H107.032V14.0688ZM117.015 29.9048C115.659 29.9048 114.691 29.2817 114.075 28.0652L122.193 24.7015L121.913 24.0109C121.409 22.6556 119.867 20.1452 116.716 20.1452C113.589 20.1452 110.989 22.6079 110.989 26.2216C110.989 29.625 113.565 32.2961 117.015 32.2961C119.799 32.2961 121.409 30.5954 122.076 29.6032L120.005 28.224C119.313 29.238 118.37 29.9068 117.015 29.9048V29.9048ZM116.807 22.4928C117.864 22.4928 118.76 23.0227 119.06 23.7808L113.631 26.0371C113.563 23.6895 115.449 22.4928 116.807 22.4928V22.4928Z" fill="white"/>
<path fill-rule="evenodd" clip-rule="evenodd" d="M133.903 14.0684H127.522V31.9286H130.185V25.1635H133.905C136.858 25.1635 139.761 23.0243 139.761 19.6149C139.761 16.2116 136.86 14.0703 133.909 14.0703L133.903 14.0684ZM133.973 22.677H130.185V16.5529H133.973C135.964 16.5529 137.098 18.206 137.098 19.6149C137.098 21.0001 135.964 22.677 133.973 22.677ZM143.891 31.9286V14.0684H141.228V31.9286H143.891ZM155.854 31.8968V25.0504C155.854 21.8792 153.486 20.1111 150.431 20.1111C148.505 20.1111 146.508 20.9624 145.682 22.8457L148.045 23.8319C148.551 22.8457 149.491 22.5222 150.48 22.5222C151.856 22.5222 153.256 23.3497 153.278 24.8222V25.0067C152.796 24.7309 151.765 24.3162 150.5 24.3162C147.952 24.3162 145.358 25.7172 145.358 28.3367C145.358 30.728 147.448 32.2659 149.79 32.2659C151.583 32.2659 152.568 31.4622 153.187 30.5216H153.278V31.9008H155.852L155.854 31.8968ZM150.113 29.9004C149.241 29.9004 148.023 29.4639 148.023 28.3863C148.023 27.0071 149.54 26.4753 150.849 26.4753C152.021 26.4753 152.57 26.7273 153.284 27.0726C153.08 28.676 151.725 29.8806 150.113 29.9004ZM165.219 20.502L162.165 28.2434H162.074L158.905 20.502H156.036L160.787 31.3253L158.076 37.3442H160.854L168.177 20.502H165.219Z" fill="white"/>
<defs>
<clipPath id="clip0_4020_1827">
<rect width="48" height="48" fill="white" transform="translate(0 0.00390625)"/>
</clipPath>
</defs>
</svg>
