<svg width="179" height="20" viewBox="0 0 179 20" fill="none" xmlns="http://www.w3.org/2000/svg">
<g clip-path="url(#clip0_5542_4683)">
<path d="M179.001 9.47029L163.284 1.69737L159.87 0V3.71322L163.284 5.4106L171.487 9.47029L163.284 13.53L159.87 15.2274V18.9406L163.284 17.2432L179.001 9.47029Z" fill="url(#paint0_linear_5542_4683)"/>
<path d="M9.75299 3.56971C10.6212 3.56211 11.4824 3.7215 12.2869 4.03865C13.0914 4.35581 13.8232 4.82446 14.4401 5.41757C14.8881 5.85504 15.2661 6.35523 15.5614 6.90146H18.9649C18.9589 6.67744 18.8835 6.46038 18.7486 6.27851L18.6945 6.14901C17.9344 4.46225 16.6833 3.02774 15.0948 2.02177C13.5063 1.01579 11.6497 0.482155 9.75299 0.486437C8.47438 0.480482 7.20717 0.719813 6.02414 1.19068C4.84111 1.66155 3.76559 2.35467 2.85936 3.23023C1.95178 4.0908 1.2306 5.11881 0.738217 6.25383C0.245834 7.38884 -0.0078125 8.60795 -0.0078125 9.83949C-0.0078125 11.071 0.245834 12.2901 0.738217 13.4252C1.2306 14.5602 1.95178 15.5882 2.85936 16.4487C4.69644 18.2073 7.17286 19.1932 9.75299 19.1932C12.3331 19.1932 14.8095 18.2073 16.6466 16.4487C17.5182 15.6113 18.218 14.6208 18.7089 13.53L18.8423 13.229C18.9206 13.0503 18.9504 12.8551 18.9289 12.662H15.6335C15.3164 13.2407 14.9076 13.7675 14.4221 14.2229C13.1778 15.4274 11.4922 16.1038 9.73496 16.1038C7.9777 16.1038 6.29214 15.4274 5.04787 14.2229C4.44154 13.6511 3.96015 12.9665 3.63245 12.2101C3.30475 11.4536 3.13747 10.6408 3.14059 9.82024C3.14669 8.99847 3.321 8.18607 3.65337 7.43026C3.98575 6.67445 4.46957 5.9903 5.07672 5.41757C5.69257 4.82603 6.42265 4.35831 7.22511 4.04121C8.02757 3.72412 8.88661 3.56389 9.75299 3.56971Z" fill="white"/>
<path d="M35.2007 0.371094L27.193 15.6265L25.4443 18.9407H29.2697L31.0184 15.6265L35.2007 7.66805L39.383 15.6265L41.1317 18.9407H44.9571L43.2084 15.6265L35.2007 0.371094Z" fill="white"/>
<path d="M67.7757 12.2037L55.4775 2.9959L52.0596 0.451588V18.9687H55.4775V7.21658L67.7757 16.4209L71.1901 18.9687V0.399092L67.7757 0.371094V12.2037Z" fill="white"/>
<path d="M79.3887 3.71318H87.2305V18.9685H90.6485V3.71318H98.4904V0.398926H79.3887V3.71318Z" fill="white"/>
<path d="M146.742 10.3732C147.254 10.3226 147.754 10.1877 148.22 9.97421C149.116 9.57241 149.874 8.93082 150.407 8.12486C150.94 7.31891 151.224 6.3821 151.227 5.42455C151.224 4.09524 150.684 2.82013 149.724 1.87232C149.248 1.40657 148.683 1.03662 148.06 0.783761C147.437 0.530901 146.768 0.400115 146.093 0.398926H134.015V3.72368H137.433H146.086C146.315 3.71925 146.542 3.75905 146.755 3.84076C146.968 3.92247 147.162 4.04446 147.326 4.19964C147.656 4.52441 147.842 4.96141 147.845 5.41755C147.844 5.74426 147.746 6.0637 147.561 6.33706C147.377 6.61042 147.115 6.82594 146.807 6.95744C146.582 7.06321 146.335 7.11711 146.086 7.11493L139.181 7.13942H134.015V18.9685H137.433V10.4257H142.498L143.219 11.3636L148.988 18.9685H152.813L146.742 10.3732Z" fill="white"/>
<path d="M106.743 0.371094V3.68885H107.053H111.881H125.845V0.371094H111.881H106.743Z" fill="white"/>
<path d="M107.053 15.6265H106.743V16.1794V18.9407H111.881H125.845V16.1794V15.6265H111.874H107.053Z" fill="white"/>
<path d="M120.314 8.0284V8.0249H110.132H106.743V11.3427H120.314V8.0284Z" fill="white"/>
</g>
<defs>
<linearGradient id="paint0_linear_5542_4683" x1="159.87" y1="9.47029" x2="179.001" y2="9.47029" gradientUnits="userSpaceOnUse">
<stop stop-color="#691EFF"/>
<stop offset="1" stop-color="#02BFFF"/>
</linearGradient>
<clipPath id="clip0_5542_4683">
<rect width="179" height="19.1786" fill="white"/>
</clipPath>
</defs>
</svg>
